<svg width="220" height="64" viewBox="0 0 220 64" fill="none" xmlns="http://www.w3.org/2000/svg">
<mask id="mask0_8_236" style="mask-type:luminance" maskUnits="userSpaceOnUse" x="0" y="0" width="62" height="64">
<path d="M0 0H61.593V63.5175H0V0Z" fill="white"/>
</mask>
<g mask="url(#mask0_8_236)">
<path d="M46.7593 27.3677C47.0809 24.3672 47.4055 21.3639 47.73 18.3634C36.9341 17.1805 26.1354 16.0006 15.3395 14.8206C20.535 11.5345 26.4513 8.91773 32.5859 9.1947C38.3098 9.45435 43.7867 12.3106 47.6438 16.5689C51.7479 21.1071 54.0857 27.385 53.2931 33.4667C49.9529 34.3697 46.6128 35.2727 43.2755 36.1758C47.8219 36.1758 52.4832 36.8941 57.0181 37.249C58.0434 37.3298 59.3702 37.6731 60.384 37.5144C61.5328 37.3327 61.3577 36.8711 61.5099 35.6536C61.7396 33.8389 61.7999 32.0069 61.7023 30.1835C61.6764 29.7248 61.642 29.2689 61.596 28.8102C60.9297 21.9928 58.0549 15.3803 53.4079 10.3545C52.9628 9.87269 52.5004 9.4053 52.0236 8.95235C44.4416 1.78875 33.1144 -1.12805 23.0394 1.49159C12.9615 4.10834 4.46325 12.175 1.28968 22.1342C12.3469 23.0891 23.384 24.2749 34.3895 25.6857L21.6034 32.7512L15.1643 36.3114L15.1098 36.3402L15.0782 36.3575L14.8829 38.3396C14.8829 38.3396 14.5727 41.4439 14.5583 41.5795C14.4435 42.6989 14.3573 43.8241 14.2223 44.9377C24.8401 46.0282 35.4522 47.2198 46.0614 48.3651C46.1131 48.3709 46.1648 48.3767 46.2107 48.3825C45.8488 48.3825 44.3209 49.9433 43.9619 50.1914C43.1319 50.7713 42.2617 51.2906 41.3599 51.7522C39.6166 52.6408 37.7584 53.3015 35.8456 53.7342C27.0372 55.7278 17.8841 52.1994 12.525 44.9464C10.661 42.4277 9.30832 39.5051 8.74253 36.4123C8.69371 36.1325 8.66499 35.8382 8.61904 35.5555C7.99869 31.8828 8.35481 29.1737 8.35481 29.1737L18.987 27.5668C16.8129 27.2494 14.6187 26.9494 12.4158 26.8397L10.8477 26.6666L5.61779 26.0867L3.83428 25.8905L0.264377 25.4982C0.241401 25.4982 0.221297 25.7059 0.212681 26.0492V26.0608C0.0920567 27.5235 -0.163551 31.652 0.350537 36.2046C1.74633 48.5729 11.1263 58.6706 22.9848 61.9855C35.1334 65.387 48.9678 59.9227 56.2168 49.7355C57.1358 48.443 57.9515 47.0784 58.6551 45.6561C58.8447 45.2752 60.4472 41.1438 60.4444 41.1438L57.4833 40.8351L50.849 40.1427L50.49 40.1081L27.7954 37.7452L26.885 37.6529L26.9338 37.627L28.5709 36.7874L30.0356 36.0315L33.7893 34.0985L46.7506 27.4167" fill="black"/>
</g>
<path d="M77.3905 31.304L86.4431 18.7829H77.6203V15.4131H91.4174V18.1251L82.4108 30.6116H91.9458V33.9929H77.3905V31.304Z" fill="black"/>
<path d="M103.56 34.3968C101.713 34.3968 100.036 33.99 98.528 33.1735C97.0173 32.36 95.8312 31.2204 94.9667 29.7576C94.0994 28.2891 93.6686 26.6072 93.6686 24.7146C93.6686 22.8162 94.0994 21.1313 94.9667 19.6599C95.8312 18.1914 97.0173 17.049 98.528 16.2325C100.036 15.4189 101.713 15.0092 103.56 15.0092C105.412 15.0092 107.087 15.4189 108.58 16.2325C110.073 17.049 111.251 18.1914 112.118 19.6599C112.983 21.1313 113.416 22.8162 113.416 24.7146C113.416 26.6072 112.983 28.2891 112.118 29.7576C111.251 31.2204 110.073 32.36 108.58 33.1735C107.087 33.99 105.412 34.3968 103.56 34.3968ZM103.56 30.6693C104.622 30.6693 105.593 30.427 106.466 29.9423C107.339 29.4518 108.029 28.7594 108.534 27.865C109.045 26.9736 109.304 25.9234 109.304 24.7146C109.304 23.5317 109.051 22.4931 108.546 21.5987C108.046 20.6986 107.362 20.0061 106.489 19.5214C105.616 19.031 104.64 18.7829 103.56 18.7829C102.471 18.7829 101.486 19.031 100.607 19.5214C99.7343 20.0061 99.0392 20.6986 98.528 21.5987C98.0225 22.4931 97.7698 23.5317 97.7698 24.7146C97.7698 25.9234 98.0225 26.9736 98.528 27.865C99.0392 28.7594 99.7371 29.4518 100.619 29.9423C101.506 30.427 102.486 30.6693 103.56 30.6693Z" fill="black"/>
<path d="M115.637 15.4131H119.657V33.9929H115.637V15.4131Z" fill="black"/>
<path d="M131.703 15.4131H135.666L141.364 27.8535L147.074 15.4131H151.026V33.9929H147.189V23.4336L142.283 33.9929H140.434L135.563 23.4336V33.9929H131.703V15.4131Z" fill="black"/>
<path d="M153.804 15.4131H166.636V18.7829H157.825V23.0874H164.304V26.3302H157.825V30.6116H166.636V33.9929H153.804V15.4131Z" fill="black"/>
<path d="M168.6 15.4131H176.619C178.715 15.4131 180.352 15.9411 181.524 16.9941C182.701 18.0501 183.293 19.5676 183.293 21.5525C183.293 22.9316 182.974 24.1029 182.34 25.0723C181.702 26.0417 180.803 26.7456 179.64 27.1842L183.155 33.9929H179.031L175.768 27.6919H172.621V33.9929H168.6V15.4131ZM175.906 24.3106C176.923 24.3106 177.727 24.0914 178.319 23.6528C178.916 23.2085 179.215 22.5075 179.215 21.5525C179.215 20.537 178.922 19.8215 178.342 19.406C177.759 18.9906 176.946 18.7829 175.906 18.7829H172.621V24.3106H175.906Z" fill="black"/>
<path d="M195.017 34.3968C193.041 34.3968 191.289 34.0044 189.767 33.2197C188.251 32.4292 187.079 31.304 186.252 29.85C185.425 28.3959 185.011 26.6851 185.011 24.7146C185.011 22.7469 185.425 21.0303 186.252 19.5676C187.079 18.1078 188.251 16.9826 189.767 16.1979C191.289 15.4074 193.041 15.0092 195.017 15.0092C197.573 15.0092 199.707 15.5949 201.416 16.7633V20.5947C200.641 19.9427 199.753 19.4695 198.751 19.1752C197.754 18.8839 196.626 18.7367 195.362 18.7367C193.432 18.7367 191.907 19.2733 190.79 20.3408C189.67 21.4112 189.112 22.8681 189.112 24.7146C189.112 26.5783 189.675 28.0468 190.801 29.1229C191.933 30.1933 193.455 30.727 195.362 30.727C196.663 30.727 197.815 30.5741 198.82 30.2654C199.831 29.9509 200.767 29.4461 201.634 28.7536V32.585C200.009 33.7938 197.803 34.3968 195.017 34.3968Z" fill="black"/>
<path d="M203.882 15.4131H207.903V22.8566H215.979V15.4131H220V33.9929H215.979V26.2032H207.903V33.9929H203.882V15.4131Z" fill="black"/>
<path d="M126.012 50.8071C126.187 50.8071 126.276 50.8994 126.276 51.084C126.276 51.2629 126.187 51.3495 126.012 51.3495H122.152C121.968 51.3495 121.876 51.2629 121.876 51.084V44.9562C121.876 44.7802 121.968 44.6907 122.152 44.6907H126.012C126.187 44.6907 126.276 44.7802 126.276 44.9562C126.276 45.1408 126.187 45.2331 126.012 45.2331H122.416V47.7143H124.794C124.97 47.7143 125.059 47.8037 125.059 47.9797C125.059 48.1586 124.97 48.2451 124.794 48.2451H122.416V50.8071H126.012Z" fill="black"/>
<path d="M130.439 51.3379C129.824 51.3379 129.371 51.2052 129.072 50.934C128.779 50.657 128.627 50.2243 128.612 49.63C128.604 49.5549 128.624 49.4886 128.67 49.4338C128.722 49.3818 128.791 49.353 128.877 49.353C128.951 49.353 129.015 49.3818 129.061 49.4338C129.106 49.4799 129.132 49.5434 129.141 49.6184C129.155 50.0656 129.259 50.3772 129.451 50.5532C129.641 50.7234 129.971 50.8071 130.439 50.8071H131.921C132.418 50.8071 132.76 50.7119 132.943 50.5186C133.133 50.3281 133.231 49.9877 133.231 49.503C133.231 49.0126 133.133 48.6721 132.943 48.4875C132.751 48.2971 132.409 48.199 131.921 48.199H130.508C129.911 48.199 129.468 48.0576 129.187 47.772C128.903 47.4892 128.762 47.0421 128.762 46.4333C128.762 45.8332 128.903 45.3947 129.187 45.1177C129.468 44.835 129.911 44.6907 130.508 44.6907H131.955C132.53 44.6907 132.955 44.8234 133.231 45.0831C133.512 45.3456 133.661 45.7524 133.679 46.3064C133.684 46.3929 133.661 46.4564 133.61 46.5026C133.564 46.5487 133.498 46.5718 133.414 46.5718C133.337 46.5718 133.277 46.5487 133.231 46.5026C133.185 46.4564 133.156 46.3958 133.15 46.3179C133.142 45.9198 133.047 45.637 132.863 45.4755C132.679 45.3139 132.375 45.2331 131.955 45.2331H130.508C130.054 45.2331 129.741 45.3226 129.566 45.4986C129.388 45.6774 129.302 45.989 129.302 46.4333C129.302 46.8949 129.388 47.2152 129.566 47.3912C129.741 47.57 130.054 47.6566 130.508 47.6566H131.921C132.564 47.6566 133.03 47.8066 133.323 48.1066C133.621 48.4009 133.771 48.8654 133.771 49.503C133.771 50.1348 133.621 50.5993 133.323 50.8994C133.03 51.1937 132.564 51.3379 131.921 51.3379H130.439Z" fill="black"/>
<path d="M138.605 51.361C138.527 51.361 138.461 51.335 138.409 51.2802C138.355 51.2283 138.329 51.1648 138.329 51.0956V45.2331H136.135C136.066 45.2331 136.003 45.2072 135.951 45.1523C135.896 45.1004 135.871 45.0341 135.871 44.9562C135.871 44.8811 135.896 44.8177 135.951 44.7715C136.003 44.7196 136.066 44.6907 136.135 44.6907H141.063C141.138 44.6907 141.201 44.7196 141.247 44.7715C141.299 44.8177 141.327 44.8811 141.327 44.9562C141.327 45.0341 141.299 45.1004 141.247 45.1523C141.201 45.2072 141.138 45.2331 141.063 45.2331H138.869V51.0956C138.869 51.1648 138.84 51.2283 138.789 51.2802C138.743 51.335 138.679 51.361 138.605 51.361Z" fill="black"/>
<path d="M143.667 51.3494C143.575 51.3494 143.5 51.3264 143.448 51.2802C143.394 51.2283 143.368 51.1504 143.368 51.0494V50.8532C143.368 50.7551 143.394 50.6801 143.448 50.6339C143.5 50.582 143.575 50.5532 143.667 50.5532H143.862C144.06 50.5532 144.161 50.6541 144.161 50.8532V51.0494C144.161 51.2513 144.06 51.3494 143.862 51.3494H143.667Z" fill="black"/>
<path d="M150.622 51.3495C150.444 51.3495 150.357 51.2629 150.357 51.084C150.357 50.5763 150.444 50.1579 150.622 49.8261C150.806 49.4886 151.05 49.2001 151.357 48.9606C151.67 48.724 152.127 48.4298 152.724 48.0836C153.152 47.847 153.465 47.6623 153.666 47.5296C153.864 47.3912 154.016 47.2382 154.126 47.068C154.24 46.892 154.298 46.6814 154.298 46.4333C154.298 45.989 154.209 45.6774 154.034 45.4986C153.856 45.3226 153.543 45.2331 153.092 45.2331H152C151.592 45.2331 151.3 45.3024 151.116 45.4409C150.932 45.5793 150.829 45.8188 150.806 46.1563C150.783 46.341 150.685 46.4333 150.518 46.4333C150.432 46.4333 150.369 46.4102 150.323 46.3641C150.277 46.3121 150.257 46.2371 150.266 46.1448C150.303 45.6457 150.464 45.2793 150.748 45.0485C151.03 44.8119 151.449 44.6907 152 44.6907H153.092C153.689 44.6907 154.128 44.835 154.413 45.1177C154.694 45.3947 154.838 45.8332 154.838 46.4333C154.838 46.7737 154.76 47.0651 154.608 47.3104C154.453 47.5498 154.258 47.7547 154.022 47.922C153.784 48.0836 153.442 48.2913 153 48.5452C152.463 48.8625 152.063 49.1106 151.805 49.2953C151.544 49.4742 151.337 49.6848 151.185 49.93C151.03 50.1695 150.938 50.4609 150.909 50.8071H154.62C154.795 50.8071 154.884 50.8994 154.884 51.084C154.884 51.2629 154.795 51.3495 154.62 51.3495H150.622Z" fill="black"/>
<path d="M159.44 51.3725C158.696 51.3725 158.153 51.2052 157.809 50.8647C157.47 50.5185 157.303 49.9704 157.303 49.2145V46.8603C157.303 46.1159 157.476 45.5735 157.82 45.2331C158.165 44.8956 158.705 44.7253 159.44 44.7253H160.06C160.801 44.7253 161.347 44.8956 161.692 45.2331C162.036 45.5735 162.209 46.1188 162.209 46.8718V49.2145C162.209 49.9704 162.036 50.5185 161.692 50.8647C161.347 51.2052 160.801 51.3725 160.06 51.3725H159.44ZM160.06 50.8301C160.649 50.8301 161.063 50.7118 161.301 50.4724C161.545 50.2271 161.669 49.8088 161.669 49.2145V46.8718C161.669 46.2804 161.545 45.8649 161.301 45.6255C161.063 45.3803 160.649 45.2562 160.06 45.2562H159.44C159.041 45.2562 158.728 45.311 158.498 45.4178C158.268 45.5187 158.099 45.6832 157.993 45.914C157.892 46.1448 157.843 46.4621 157.843 46.8603V49.2145C157.843 49.6155 157.892 49.9358 157.993 50.1723C158.099 50.4031 158.268 50.5734 158.498 50.6801C158.728 50.7811 159.041 50.8301 159.44 50.8301H160.06ZM159.808 48.4528C159.707 48.4528 159.63 48.4298 159.578 48.3836C159.532 48.3317 159.509 48.2538 159.509 48.1528V47.9566C159.509 47.8643 159.532 47.7922 159.578 47.7373C159.63 47.6854 159.707 47.6566 159.808 47.6566H160.003C160.193 47.6566 160.29 47.7575 160.29 47.9566V48.1528C160.29 48.3547 160.193 48.4528 160.003 48.4528H159.808Z" fill="black"/>
<path d="M164.923 51.3495C164.744 51.3495 164.658 51.2629 164.658 51.084C164.658 50.5763 164.744 50.1579 164.923 49.8261C165.106 49.4886 165.35 49.2001 165.658 48.9606C165.971 48.724 166.427 48.4298 167.025 48.0836C167.453 47.847 167.766 47.6623 167.967 47.5296C168.165 47.3912 168.317 47.2382 168.426 47.068C168.541 46.892 168.599 46.6814 168.599 46.4333C168.599 45.989 168.51 45.6774 168.335 45.4986C168.156 45.3226 167.843 45.2331 167.392 45.2331H166.301C165.893 45.2331 165.6 45.3024 165.417 45.4409C165.233 45.5793 165.129 45.8188 165.106 46.1563C165.083 46.341 164.986 46.4333 164.819 46.4333C164.733 46.4333 164.67 46.4102 164.624 46.3641C164.578 46.3121 164.558 46.2371 164.566 46.1448C164.604 45.6457 164.765 45.2793 165.049 45.0485C165.33 44.8119 165.75 44.6907 166.301 44.6907H167.392C167.99 44.6907 168.429 44.835 168.714 45.1177C168.995 45.3947 169.139 45.8332 169.139 46.4333C169.139 46.7737 169.061 47.0651 168.909 47.3104C168.754 47.5498 168.559 47.7547 168.323 47.922C168.085 48.0836 167.743 48.2913 167.301 48.5452C166.764 48.8625 166.364 49.1106 166.106 49.2953C165.844 49.4742 165.638 49.6848 165.485 49.93C165.33 50.1695 165.238 50.4609 165.21 50.8071H168.92C169.096 50.8071 169.185 50.8994 169.185 51.084C169.185 51.2629 169.096 51.3495 168.92 51.3495H164.923Z" fill="black"/>
<path d="M173.293 51.3379C172.701 51.3379 172.259 51.2167 171.96 50.9686C171.667 50.7147 171.501 50.3195 171.455 49.78C171.455 49.6877 171.478 49.6184 171.524 49.5723C171.57 49.5261 171.639 49.503 171.731 49.503C171.892 49.503 171.978 49.5925 171.995 49.7684C172.024 50.1464 172.138 50.4147 172.34 50.5763C172.538 50.732 172.856 50.8071 173.293 50.8071H174.465C174.953 50.8071 175.295 50.7119 175.487 50.5186C175.677 50.3281 175.774 49.9877 175.774 49.503C175.774 49.0126 175.677 48.6721 175.487 48.4875C175.295 48.2971 174.953 48.199 174.465 48.199H173.511C173.425 48.199 173.356 48.1759 173.305 48.1297C173.259 48.0836 173.236 48.0143 173.236 47.922C173.236 47.8383 173.259 47.772 173.305 47.7258C173.356 47.6797 173.425 47.6566 173.511 47.6566H174.603C174.97 47.6566 175.229 47.5614 175.384 47.3681C175.536 47.169 175.614 46.8574 175.614 46.4333C175.614 45.989 175.525 45.6774 175.349 45.4986C175.171 45.3226 174.858 45.2331 174.407 45.2331H173.408C173 45.2331 172.707 45.3024 172.523 45.4409C172.345 45.5793 172.248 45.8188 172.225 46.1563C172.202 46.341 172.11 46.4333 171.949 46.4333C171.857 46.4333 171.788 46.4102 171.742 46.3641C171.696 46.3121 171.676 46.2371 171.685 46.1448C171.731 45.6457 171.892 45.2793 172.167 45.0485C172.443 44.8119 172.856 44.6907 173.408 44.6907H174.407C175.01 44.6907 175.453 44.835 175.728 45.1177C176.004 45.3947 176.142 45.8332 176.142 46.4333C176.142 47.1344 175.895 47.6104 175.407 47.8643C175.711 47.997 175.938 48.1961 176.085 48.4644C176.237 48.7356 176.314 49.0818 176.314 49.503C176.314 50.1348 176.165 50.5993 175.866 50.8994C175.568 51.1937 175.1 51.3379 174.465 51.3379H173.293Z" fill="black"/>
</svg>
